# xmcd
#
# Track frame offsets:
#	150
#	18767
#	39886
#	56182
#	70639
#	88781
#	105617
#	118028
#	139585
#	154537
#	162820
#	181620
#	195981
#	214818
#	234390
#	242311
#
# Disc length: 3548 seconds
#
# Revision: 3
# Processed by: cddbd v1.4PL0 Copyright (c) Steve Scherf et al.
# Submitted via: audiograbber 1.81.02
#
DISCID=bc0dda10
DTITLE=De-Phazz - Godsdog
DYEAR=1900
DGENRE=
TTITLE0=De-Phazz - The Mambo Craze
TTITLE1=De-Phazz - Cafe Coco
TTITLE2=De-Phazz - Jazz Music
TTITLE3=De-Phazz - Steps Ahead
TTITLE4=De-Phazz - Zero Zero
TTITLE5=De-Phazz - Happiness
TTITLE6=De-Phazz - Sqeeze The Trigger
TTITLE7=De-Phazz - April Shower
TTITLE8=De-Phazz - Godsdog
TTITLE9=De-Phazz - Low Budget Hotel
TTITLE10=De-Phazz - Time Slips
TTITLE11=De-Phazz - Havana Moon
TTITLE12=De-Phazz - Information
TTITLE13=De-Phazz - Next Message
TTITLE14=De-Phazz - Radio Sol
TTITLE15=De-Phazz - Anchorless
EXTD=
EXTT0=
EXTT1=
EXTT2=
EXTT3=
EXTT4=
EXTT5=
EXTT6=
EXTT7=
EXTT8=
EXTT9=
EXTT10=
EXTT11=
EXTT12=
EXTT13=
EXTT14=
EXTT15=
PLAYORDER=
